Coordinates
version=1
nRows=13
nColumns=22
inDegrees=yes

Units are S.I. units (second, meters, Newtons, ...)
If the header above contains a line with 'inDegrees', this indicates whether rotational values are in degrees (yes) or radians (no).

endheader
time	pelvis_tilt	pelvis_list	pelvis_rotation	pelvis_tx	pelvis_ty	pelvis_tz	hip_flexion_r	hip_adduction_r	hip_rotation_r	knee_angle_r	ankle_angle_r	subtalar_angle_r	hip_flexion_l	hip_adduction_l	hip_rotation_l	knee_angle_l	ankle_angle_l	subtalar_angle_l	lumbar_extension	lumbar_bending	lumbar_rotation
      4.07000000	      2.91834581	     -0.98924923	   -105.19884432	      0.30718714	      0.92325706	      0.81502226	      7.16024125	     -8.77250277	      1.58933205	    -60.09812225	     -4.97078066	      2.71573944	     19.66377173	      1.29908939	    -13.04969200	    -28.88917913	      6.50762403	     -4.41463136	     -2.78101022	     -7.06069342	      7.78220902
      4.08000000	      2.98315438	     -1.12766131	   -105.42175305	      0.30802828	      0.92414120	      0.82013197	      8.55105863	     -9.05535230	      1.43680781	    -61.62961292	     -3.85116630	      2.08797630	     19.06225972	      1.54598846	    -13.27295807	    -28.65206813	      6.74778905	     -4.53724003	     -3.11001574	     -7.24794240	      7.13316634
      4.09000000	      2.96992545	     -1.26430060	   -105.57586689	      0.30876570	      0.92509313	      0.82501345	      9.84006892	     -9.12558720	      1.37412077	    -62.91398826	     -2.75939965	      1.62242856	     18.45814734	      1.71490778	    -13.42356509	    -28.41045753	      6.94157039	     -4.61082670	     -3.46187602	     -7.36748152	      6.43440978
      4.10000000	      2.87794060	     -1.40916606	   -105.64677706	      0.30944741	      0.92608541	      0.82965671	     11.00944364	     -9.00379289	      1.35321442	    -63.95715621	     -1.76035371	      1.30794868	     17.86575390	      1.80376937	    -13.50446089	    -28.21312051	      7.13741244	     -4.65318986	     -3.85755394	     -7.41808716	      5.69945321
      4.11000000	      2.72851546	     -1.56890476	   -105.64087842	      0.31008953	      0.92710004	      0.83407604	     12.05713905	     -8.73093586	      1.36281321	    -64.76577554	     -0.88780183	      1.22813937	     17.28699383	      1.82969032	    -13.54475832	    -28.07030204	      7.33813313	     -4.65647092	     -4.30048053	     -7.42382672	      4.93232700
      4.12000000	      2.56803504	     -1.71288652	   -105.56959848	      0.31070836	      0.92809357	      0.83838225	     13.01705506	     -8.37206624	      1.38927341	    -65.33665119	     -0.09425169	      1.23525311	     16.71995287	      1.84179486	    -13.55820625	    -27.89966670	      7.50047566	     -4.65685666	     -4.71749877	     -7.41565900	      4.12508546
      4.13000000	      2.39738917	     -1.87016997	   -105.42056384	      0.31135970	      0.92905729	      0.84248986	     13.86739184	     -7.95334131	      1.42040807	    -65.69070867	      0.67697780	      1.34286757	     16.16809239	      1.86262810	    -13.45952407	    -27.75094979	      7.64325774	     -4.66145615	     -5.17091826	     -7.40696044	      3.31046427
      4.14000000	      2.21561958	     -2.04541096	   -105.19833412	      0.31204500	      0.93001045	      0.84649512	     14.59111952	     -7.50358310	      1.43160226	    -65.82078282	      1.40715744	      1.61107985	     15.60409703	      1.88450721	    -13.30840162	    -27.59674445	      7.78537894	     -4.66337341	     -5.64817728	     -7.38661902	      2.45971869
      4.15000000	      2.03402938	     -2.23665043	   -104.91768749	      0.31276799	      0.93095299	      0.85045375	     15.19354096	     -7.05979601	      1.41329430	    -65.73011533	      2.10158792	      2.06074156	     15.01418219	      1.91538881	    -13.14114981	    -27.41046536	      7.92585254	     -4.66380502	     -6.13531485	     -7.35973303	      1.58714810
      4.16000000	      1.87940793	     -2.41212516	   -104.60297266	      0.31350244	      0.93176141	      0.85425915	     15.75131737	     -6.64342327	      1.39336473	    -65.47360653	      2.85450593	      2.50297878	     14.47354461	      1.96397110	    -12.96114761	    -27.24903007	      8.06812749	     -4.66560092	     -6.60203728	     -7.35410257	      0.73467430
      4.17000000	      1.74622971	     -2.57818738	   -104.25183832	      0.31427576	      0.93246992	      0.85794793	     16.25023530	     -6.26827949	      1.35359199	    -65.04769336	      3.63725321	      2.91629335	     13.95863224	      2.03654186	    -12.74383810	    -27.08590805	      8.21351435	     -4.67736512	     -7.05341009	     -7.35697826	     -0.10673873
      4.18000000	      1.63877223	     -2.73382166	   -103.88380386	      0.31506733	      0.93308480	      0.86156179	     16.69600441	     -5.95413757	      1.28822355	    -64.46004776	      4.44623706	      3.31235616	     13.45968779	      2.12550436	    -12.55337939	    -26.90811915	      8.36496705	     -4.70409605	     -7.47629512	     -7.37124507	     -0.92674419
      4.19000000	      1.55913951	     -2.86855718	   -103.50239053	      0.31589299	      0.93357659	      0.86504205	     17.11595241	     -5.69338813	      1.21618260	    -63.73760798	      5.28246655	      3.63264986	     13.00283608	      2.24159400	    -12.32224138	    -26.73647979	      8.52453377	     -4.74188358	     -7.86920030	     -7.39440902	     -1.72104741
